<svg xmlns="http://www.w3.org/2000/svg" viewBox="0 0 400 225">
<style type="text/css">
	.st0{fill:#62A6EF;}
	.st1{opacity:0.15;}
	.st2{fill:#36C670;}
	.st3{fill:#D85D6F;}
	.st4{fill:#F4C84D;}
	.st5{fill:none;}
	.st6{fill:#2A1C5E;}
	.st7{fill:#63F293;}
	.st8{fill:#C8A4F7;}
</style>
<g>
	<g id="Layer_2_00000068654873495499607410000001330433312754681486_">
		<g id="timeline">
			<g>
				<rect x="96" y="140.5" class="st0" width="205" height="8"/>
				<g>
					<g class="st1">
						<polygon points="96,80.5 96,131.5 144.3,131.5 153,137.8 153,131.1 153,123.1 153,80.5 						"/>
					</g>
					<polygon class="st2" points="96,73.5 96,124.5 144.3,124.5 153,130.8 153,124.1 153,116.1 153,73.5 					"/>
				</g>
				<g>
					<g class="st1">
						<polygon points="167,80.5 167,131.5 215.1,131.5 224,137.8 224,131.1 224,123.1 224,80.5 						"/>
					</g>
					<polygon class="st3" points="167,73.5 167,124.5 215.1,124.5 224,130.8 224,124.1 224,116.1 224,73.5 					"/>
				</g>
				<g>
					<g class="st1">
						<polygon points="311,80.5 311,131.5 262.6,131.5 254,137.8 254,131.1 254,123.1 254,80.5 						"/>
					</g>
					<polygon class="st4" points="311,73.5 311,124.5 262.6,124.5 254,130.8 254,124.1 254,116.1 254,73.5 					"/>
				</g>
				<circle class="st2" cx="152.9" cy="144.5" r="9.2"/>
				<circle class="st3" cx="223.7" cy="144.5" r="9.2"/>
				<circle class="st4" cx="254" cy="144.5" r="9.2"/>
				<polygon class="st0" points="298,135.3 311.6,144.5 298,153.7 				"/>
			</g>
			<rect y="0" class="st5" width="400" height="225"/>
		</g>
	</g>
</g>
<rect x="96" y="160.4" class="st6" width="145.5" height="9.1"/>
<rect x="165.5" y="169.5" class="st7" width="145.5" height="9.1"/>
<rect x="127.2" y="178.6" class="st8" width="145.5" height="9.1"/>
</svg>